<?xml version="1.0" encoding="UTF-8" standalone="no"?>
<svg xmlns="http://www.w3.org/2000/svg" xmlns:xlink="http://www.w3.org/1999/xlink" class="card" face="0D" height="3.5in" preserveAspectRatio="none" viewBox="-106 -164.5 212 329" width="2.25in"><symbol id="SD0" viewBox="-600 -600 1200 1200" preserveAspectRatio="xMinYMid"><path d="M-400 0C-350 0 0 -450 0 -500C0 -450 350 0 400 0C350 0 0 450 0 500C0 450 -350 0 -400 0Z" fill="red"></path></symbol><symbol id="VD0" viewBox="-500 -500 1000 1000" preserveAspectRatio="xMinYMid"><path d="M-175 0L-175 -285A175 175 0 0 1 175 -285L175 285A175 175 0 0 1 -175 285Z" stroke="red" stroke-width="80" stroke-linecap="square" stroke-miterlimit="1.5" fill="none"></path></symbol><rect width="211" height="328" x="-105.5" y="-164" rx="19" ry="19" fill="white" stroke="black"></rect><use xlink:href="#VD0" height="50" x="-104" y="-145.5"></use><use xlink:href="#SD0" height="41.827" x="-99.913" y="-90.5"></use><g transform="rotate(180)"><use xlink:href="#VD0" height="50" x="-104" y="-145.5"></use><use xlink:href="#SD0" height="41.827" x="-99.913" y="-90.5"></use></g></svg>