<?xml version="1.0" encoding="UTF-8" standalone="no"?>
<svg xmlns="http://www.w3.org/2000/svg" xmlns:xlink="http://www.w3.org/1999/xlink" class="card" face="7C" height="3.5in" preserveAspectRatio="none" viewBox="-106 -164.5 212 329" width="2.25in">
    <symbol id="SW7" viewBox="0 0 30 30" preserveAspectRatio="xMinYMid">
        <path fill="black" d="M17.6,30c0,1.102-0.895,2-2,2s-2-0.898-2-2c0-1.109,0.895-2,2-2S17.6,28.891,17.6,30z"/>
        <path fill="black" d="M15.676,25.977c-1.336,0-2.59-0.523-3.535-1.469c-0.945-1.105-1.465-2.359-1.465-3.695
            s0.52-2.59,1.465-3.371l6.688-6.688C19.584,9.996,20,8.992,20,7.926c0-1.07-0.416-2.074-1.172-2.828
            c-1.559-1.559-4.096-1.562-5.654,0C12.416,5.852,12,6.855,12,7.926H8c0-2.137,0.834-4.148,2.348-5.66
            c3.02-3.023,8.285-3.02,11.309,0.004C23.168,3.777,24,5.785,24,7.926c0,2.137-0.832,4.145-2.344,5.656l-6.688,6.523
            c-0.389,0.391-0.389,1.023,0,1.414c0.391,0.391,1.023,0.391,1.414,0c0.254-0.258,0.293-0.555,0.293-0.711h4
            c0,1.336-0.52,2.594-1.465,3.699C18.266,25.453,17.012,25.977,15.676,25.977L15.676,25.977z"/>
    </symbol>
    <symbol id="VW7" viewBox="-500 -500 1000 1000" preserveAspectRatio="xMinYMid">
        <path d="M-265 -320L-265 -460L265 -460C135 -200 -90 100 -90 460" stroke="black" stroke-width="80" stroke-linecap="square" stroke-miterlimit="1.5" fill="none"></path>
    </symbol>
    <rect width="211" height="328" x="-105.5" y="-164" rx="19" ry="19" fill="white" stroke="black"></rect>
    <use xlink:href="#VW7" height="50" x="-104" y="-145.5"></use>
    <use xlink:href="#SW7" height="41.827" x="-99.913" y="-90.5"></use>
    <use xlink:href="#SW7" height="40" x="-59.001" y="-117.551"></use>
    <use xlink:href="#SW7" height="40" x="19.001" y="-117.551"></use>
    <use xlink:href="#SW7" height="40" x="-59.001" y="-20"></use>
    <use xlink:href="#SW7" height="40" x="19.001" y="-20"></use>
    <use xlink:href="#SW7" height="40" x="-20" y="-68.775"></use>
    <g transform="rotate(180)">
        <use xlink:href="#VW7" height="50" x="-104" y="-145.5"></use>
        <use xlink:href="#SW7" height="41.827" x="-99.913" y="-90.5"></use>
        <use xlink:href="#SW7" height="40" x="-59.001" y="-117.551"></use>
        <use xlink:href="#SW7" height="40" x="19.001" y="-117.551"></use>
    </g>
</svg>
