<?xml version="1.0" encoding="UTF-8" standalone="no"?>
<svg xmlns="http://www.w3.org/2000/svg" xmlns:xlink="http://www.w3.org/1999/xlink" class="card" face="EC" height="3.5in" preserveAspectRatio="none" viewBox="-106 -164.5 212 329" width="2.25in"><symbol id="SCE" viewBox="-600 -600 1200 1200" preserveAspectRatio="xMinYMid"><path d="M30 150C35 385 85 400 130 500L-130 500C-85 400 -35 385 -30 150A10 10 0 0 0 -50 150A210 210 0 1 1 -124 -51A10 10 0 0 0 -110 -65A230 230 0 1 1 110 -65A10 10 0 0 0 124 -51A210 210 0 1 1 50 150A10 10 0 0 0 30 150Z" fill="black"></path></symbol><symbol id="VCE" viewBox="-500 -500 1000 1000" preserveAspectRatio="xMinYMid"><path d="M-180 430L-180 -430M180 430L180 -430" stroke="black" stroke-width="80" stroke-linecap="square" stroke-miterlimit="1.5" fill="none"></path></symbol><rect width="211" height="328" x="-105.5" y="-164" rx="19" ry="19" fill="white" stroke="black"></rect><use xlink:href="#VCE" height="50" x="-104" y="-145.5"></use><use xlink:href="#SCE" height="41.827" x="-99.913" y="-90.5"></use><use xlink:href="#SCE" height="40" x="-59.001" y="-117.551"></use><use xlink:href="#SCE" height="40" x="19.001" y="-117.551"></use><use xlink:href="#SCE" height="40" x="-59.001" y="-52.517"></use><use xlink:href="#SCE" height="40" x="19.001" y="-52.517"></use><use xlink:href="#SCE" height="40" x="-20" y="-85.034"></use><use xlink:href="#SCE" height="40" x="-20" y="-20"></use><g transform="rotate(180)"><use xlink:href="#VCE" height="50" x="-104" y="-145.5"></use><use xlink:href="#SCE" height="41.827" x="-99.913" y="-90.5"></use><use xlink:href="#SCE" height="40" x="-59.001" y="-117.551"></use><use xlink:href="#SCE" height="40" x="19.001" y="-117.551"></use><use xlink:href="#SCE" height="40" x="-59.001" y="-52.517"></use><use xlink:href="#SCE" height="40" x="19.001" y="-52.517"></use><use xlink:href="#SCE" height="40" x="-20" y="-85.034"></use></g></svg>
