<?xml version="1.0" encoding="UTF-8" standalone="no"?>
<svg xmlns="http://www.w3.org/2000/svg" xmlns:xlink="http://www.w3.org/1999/xlink" class="card" face="EH" height="3.5in" preserveAspectRatio="none" viewBox="-106 -164.5 212 329" width="2.25in"><symbol id="SHE" viewBox="-600 -600 1200 1200" preserveAspectRatio="xMinYMid"><path d="M0 -300C0 -400 100 -500 200 -500C300 -500 400 -400 400 -250C400 0 0 400 0 500C0 400 -400 0 -400 -250C-400 -400 -300 -500 -200 -500C-100 -500 0 -400 -0 -300Z" fill="red"></path></symbol><symbol id="VHE" viewBox="-500 -500 1000 1000" preserveAspectRatio="xMinYMid"><path d="M-180 430L-180 -430M180 430L180 -430" stroke="red" stroke-width="80" stroke-linecap="square" stroke-miterlimit="1.5" fill="none"></path></symbol><rect width="211" height="328" x="-105.5" y="-164" rx="19" ry="19" fill="white" stroke="black"></rect><use xlink:href="#VHE" height="50" x="-104" y="-145.5"></use><use xlink:href="#SHE" height="41.827" x="-99.913" y="-90.5"></use><use xlink:href="#SHE" height="40" x="-59.001" y="-117.501"></use><use xlink:href="#SHE" height="40" x="19.001" y="-117.501"></use><use xlink:href="#SHE" height="40" x="-59.001" y="-52.5"></use><use xlink:href="#SHE" height="40" x="19.001" y="-52.5"></use><use xlink:href="#SHE" height="40" x="-20" y="-85"></use><use xlink:href="#SHE" height="40" x="-20" y="-20"></use><g transform="rotate(180)"><use xlink:href="#VHE" height="50" x="-104" y="-145.5"></use><use xlink:href="#SHE" height="41.827" x="-99.913" y="-90.5"></use><use xlink:href="#SHE" height="40" x="-59.001" y="-117.501"></use><use xlink:href="#SHE" height="40" x="19.001" y="-117.501"></use><use xlink:href="#SHE" height="40" x="-59.001" y="-52.5"></use><use xlink:href="#SHE" height="40" x="19.001" y="-52.5"></use><use xlink:href="#SHE" height="40" x="-20" y="-85"></use></g></svg>